<?xml version="1.0" encoding="utf-8"?>
<!-- Generator: Adobe Illustrator 23.1.0, SVG Export Plug-In . SVG Version: 6.00 Build 0)  -->
<svg version="1.1" id="图层_1" xmlns="http://www.w3.org/2000/svg" xmlns:xlink="http://www.w3.org/1999/xlink" x="0px" y="0px"
	 viewBox="0 0 595.3 841.9" style="enable-background:new 0 0 595.3 841.9;" xml:space="preserve">
<style type="text/css">
	.st0{fill:none;stroke:#000000;stroke-width:2;stroke-miterlimit:10;}
</style>
<polyline class="st0" points="114,76 97,142.7 166.7,166.3 242.7,123.7 220,88.7 159,93.7 159.7,157.7 "/>
<polyline class="st0" points="240.7,195 193.3,126 142.7,121.2 120.3,158.1 106.3,192.7 160.3,195 196,179 245.3,149.7 "/>
<polyline class="st0" points="371.2,83.2 395.5,294.9 491.9,251.5 548,144.6 487.6,114.9 436.8,189.1 386,354.2 "/>
<polyline class="st0" points="479.2,481.3 194.4,427.3 149.9,270.6 297.6,305.5 334.1,564.9 459.6,604.1 "/>
<polyline class="st0" points="454.8,530 376.5,640.1 175.8,592.5 186.9,517.3 332,362.7 "/>
<polyline class="st0" points="75,233.5 83.7,567.1 270.6,744.9 432.6,716.4 "/>
<polyline class="st0" points="492.9,540.6 415.6,677.2 273.8,623.2 287.5,526.8 404,489.2 425.2,386 471.8,233.5 "/>
<polyline class="st0" points="484.5,183.8 320.4,149.5 302.4,49.3 444.2,5.9 503.5,40.8 541.6,102.2 574.5,244.1 523.6,388.1 
	519.4,489.2 517.3,647.5 "/>
<polyline class="st0" points="548,546.9 492.9,587.2 470.7,700.5 522.6,724.8 548,664.5 371.2,701.5 383.4,784.1 502.5,791.5 
	506.7,754.5 "/>
<polyline class="st0" points="245.3,677.2 149.9,732.2 170.8,778.8 291.8,804.2 "/>
<polyline class="st0" points="55.6,362.7 134,362.7 134,513.1 38.7,474.9 38.7,599.9 47.2,731.2 110.7,711.1 112.8,683.5 
	144.6,562.8 203.9,634.8 149.9,701.5 229.3,771.4 "/>
<polyline class="st0" points="65.2,771.4 65.2,804.2 161.5,809.5 245.3,780.9 343.6,780.9 321.4,690.9 242.7,650.7 257.8,539.5 
	192.2,455.4 238.8,354.2 229.3,254.7 "/>
<polyline class="st0" points="75,39.1 224.4,39.1 282.2,134.4 319.6,257.9 343.6,341.9 "/>
<polyline class="st0" points="32.4,105.4 32.4,174.6 128.4,222.6 229.3,228.9 276.6,254.7 310.5,294.6 "/>
<polyline class="st0" points="181.3,50.4 189.1,96.9 257.8,145.7 332.4,98 454.8,105.4 463.6,56 392.4,47.5 412.1,134.4 
	472.1,152.7 "/>
<polyline class="st0" points="507.4,172.5 530.7,245.2 558.9,326.7 558.9,408.2 "/>
<polyline class="st0" points="558.9,451.3 467.9,416 362.7,394.8 354.9,212 276.6,218.7 "/>
<polyline class="st0" points="106.3,284.7 102.2,326.7 215.9,336.2 242.7,389.2 351.4,425.9 "/>
<polyline class="st0" points="511.6,362.7 489.8,451.3 459.6,442.8 466.5,355.3 485.6,382.1 539.9,489.2 503.9,526.1 412.1,526.1 
	441.8,461.2 446,358.1 406.5,349.7 "/>
<polyline class="st0" points="48.2,265.3 106.3,265.3 139.3,303.4 215.5,303.4 209.3,362.7 273.8,489.2 "/>
</svg>
