<?xml version="1.0" encoding="utf-8"?>
<!-- Generator: Adobe Illustrator 23.0.1, SVG Export Plug-In . SVG Version: 6.00 Build 0)  -->
<svg version="1.1" id="图层_1" xmlns="http://www.w3.org/2000/svg" xmlns:xlink="http://www.w3.org/1999/xlink" x="0px" y="0px"
	 viewBox="0 0 595.3 841.9" style="enable-background:new 0 0 595.3 841.9;" xml:space="preserve">
<style type="text/css">
	.st0{fill:none;stroke:#000000;stroke-width:5;stroke-miterlimit:10;}
</style>
<polyline class="st0" points="0,12.9 8,12.9 14.7,12.9 22.3,12.9 31.3,12.9 56.3,12.9 85.2,12.9 103.3,12.9 "/>
<polyline class="st0" points="0,24.5 8,24.5 14.7,24.5 24,24.5 31.3,24.5 46.6,24.5 56.3,24.5 70.9,24.5 85.2,24.5 "/>
<polyline class="st0" points="0,36.1 8,36.1 18.4,36.1 20.9,36.1 31.3,36.1 56.3,36.1 85.2,36.1 "/>
<polyline class="st0" points="0,47.7 8,47.7 14.7,47.7 23.9,47.7 31.3,47.7 56.3,47.7 71.2,47.7 "/>
</svg>
